<?xml version="1.0" encoding="utf-8"?>
<!-- Generator: Adobe Illustrator 23.0.6, SVG Export Plug-In . SVG Version: 6.00 Build 0)  -->
<svg version="1.1" id="Layer_1" xmlns="http://www.w3.org/2000/svg" xmlns:xlink="http://www.w3.org/1999/xlink" x="0px" y="0px"
	 viewBox="0 0 500 500" style="enable-background:new 0 0 500 500;" xml:space="preserve">
<style type="text/css">
	.st0{fill:#404041;}
</style>
<g id="XMLID_33_">
	<path id="XMLID_38_" class="st0" d="M178.4,191.7l8.6,5c1.5-1.7,3-3.4,4.6-5c4-4,8.3-7.5,13-10.6c2.7-1.8,5.6-3.4,8.5-4.9
		c9.9-5,20.7-7.9,32-8.5c1.6-0.1,3.3-0.1,4.9-0.1s3.3,0,4.9,0.1v-9.8v-17.9c13.2,0.6,25.9,3.4,38,8.6c2.7,1.1,5.3,2.4,7.9,3.7
		c2.9,1.5,5.7,3.1,8.5,4.9c6.7,4.3,12.9,9.3,18.6,15c3.4,3.4,6.5,6.9,9.3,10.6l8.5-4.9c-21.9-29-56.7-47.7-95.8-47.7
		c-1.6,0-3.3,0-4.9,0.1v2.9v6.9v17.9C218.2,159.2,194.4,172.1,178.4,191.7z"/>
	<path id="XMLID_50_" class="st0" d="M213.5,303.4c2.7,1.8,5.5,3.5,8.5,4.9c7.1,3.4,14.9,5.6,23.1,6.2c1.6,0.1,3.2,0.2,4.9,0.2
		c1.6,0,3.3-0.1,4.9-0.2c0,0,0,0,0,0v-9.8c0,0,0,0,0,0c-1.6,0.1-3.2,0.2-4.9,0.2c-1.6,0-3.3-0.1-4.9-0.2c-6.4-0.6-12.5-2.2-18.2-4.8
		c-3-1.4-5.8-3-8.5-4.9c-2.5-1.7-4.8-3.7-7-5.9l-8.7,5C206,297.5,209.6,300.7,213.5,303.4z"/>
	<path id="XMLID_60_" class="st0" d="M294.9,281.5c-1.8,2.6-3.8,5-6.1,7.2c-2.1,2.1-4.2,3.9-6.6,5.6c-0.2,0.2-0.5,0.3-0.7,0.5
		c-2.4,1.7-5,3.2-7.7,4.5c-0.3,0.1-0.5,0.3-0.8,0.4c-2.7,1.2-5.5,2.3-8.3,3v10.1c4.6-1.1,9-2.6,13.2-4.6c3-1.4,5.8-3.1,8.5-4.9
		c6.6-4.5,12.4-10.3,17-16.9c1.8-2.6,3.4-5.4,4.8-8.3l-2.9-1.7l-5.6-3.2C298.3,276.1,296.7,278.9,294.9,281.5z"/>
	<path id="XMLID_61_" class="st0" d="M311.8,268.9c1.4-4.5,2.3-9.2,2.6-14.1c0.1-1.6,0.2-3.2,0.2-4.9c0-1.6-0.1-3.3-0.2-4.9
		c-0.6-8.2-2.8-16-6.2-23.1c-0.3-0.6-0.6-1.2-0.9-1.8c-0.1-0.2-0.2-0.4-0.3-0.7c-0.3-0.6-0.7-1.3-1.1-1.9c-0.3-0.6-0.7-1.1-1-1.7
		c0-0.1-0.1-0.1-0.1-0.2c-0.2-0.3-0.4-0.7-0.6-1c-0.1-0.2-0.2-0.3-0.3-0.5c-0.1-0.2-0.2-0.4-0.4-0.5c0-0.1-0.1-0.1-0.1-0.2l-8.5,4.9
		c0,0.1,0.1,0.1,0.1,0.2c1.9,2.6,3.4,5.4,4.8,8.3c2.6,5.7,4.3,11.8,4.8,18.2c0.1,1.6,0.2,3.2,0.2,4.9c0,1.6-0.1,3.3-0.2,4.9
		c-0.3,3.1-0.8,6.1-1.5,9l7.1,4.1L311.8,268.9z"/>
	<path id="XMLID_62_" class="st0" d="M165.7,304.3l6.9-4c7,10.8,16.3,20,27.1,27.1c2.7,1.8,5.6,3.4,8.5,4.9
		c8.4,4.3,17.5,7.3,27.2,8.8v-9.9c-7.8-1.4-15.3-3.9-22.3-7.4c-2.9-1.5-5.7-3.1-8.5-4.9c-4.6-3-8.9-6.6-12.9-10.6
		c-4-4-7.5-8.3-10.6-12.9c-1.8-2.7-3.4-5.6-4.9-8.5c0,0,0,0,0,0l-8.5,4.9v0l-15.5,9c-1.3-2.6-2.6-5.2-3.7-7.9
		c-5.1-12.1-8-24.8-8.6-38c-0.1-1.6-0.1-3.3-0.1-4.9s0-3.3,0.1-4.9c0.6-12.7,3.3-25.1,8.1-36.9v0c0,0,0-0.1,0.1-0.1l-8.6-4.9
		c0,0,0,0.1-0.1,0.1c-6.1,14.4-9.4,30.1-9.4,46.7c0,23.6,6.8,45.6,18.6,64.2l2.5-1.4l0,0l6-3.4L165.7,304.3z"/>
	<path id="XMLID_63_" class="st0" d="M152.2,199.2l10.7,6.2l4.8,2.8c-5.7,11.2-9.2,23.7-9.9,37c-0.1,1.6-0.1,3.3-0.1,4.9
		c0,1.6,0,3.3,0.1,4.9c0.5,9.8,2.6,19.2,5.9,28l8.6-5c-2.6-7.3-4.2-15.1-4.7-23c-0.1-1.6-0.1-3.3-0.1-4.9c0-1.6,0-3.3,0.1-4.9
		c0.7-11.3,3.6-22.2,8.6-32.1c1.5-2.9,3.1-5.7,4.9-8.5c0,0,0,0,0,0l-8.5-4.9l-6.4-3.7l-9.2-5.3c4.3-6.7,9.3-12.9,15-18.6
		c10.1-10.1,21.9-18.1,35-23.6c9.1-3.8,18.5-6.4,28.2-7.7v-9.9c-39.8,4.8-73.5,29.1-91.5,63.1c-0.1,0.1-0.1,0.2-0.2,0.3L152.2,199.2
		C152.2,199.2,152.2,199.2,152.2,199.2z"/>
	<path id="XMLID_64_" class="st0" d="M321.6,308.3l-8.6-5c-1.5,1.7-3,3.4-4.6,5c-4,4-8.3,7.5-13,10.6c-2.7,1.8-5.6,3.4-8.5,4.9
		c-9.9,5-20.7,7.9-32,8.5c-1.6,0.1-3.3,0.1-4.9,0.1s-3.3,0-4.9-0.1v9.8v17.9c-13.2-0.6-25.9-3.4-38-8.6c-2.7-1.1-5.3-2.4-7.9-3.7
		c-2.9-1.5-5.7-3.1-8.5-4.9c-6.7-4.3-12.9-9.3-18.6-15c-3.4-3.4-6.5-6.9-9.3-10.6l-8.5,4.9c21.9,29,56.7,47.7,95.8,47.7
		c1.6,0,3.3,0,4.9-0.1V367v-6.9v-17.9C281.8,340.8,305.6,327.9,321.6,308.3z"/>
	<path id="XMLID_65_" class="st0" d="M351.4,185.8l-2.5,1.4l0,0l-6,3.4l-8.7,5l-6.9,4c-7-10.8-16.3-20-27.1-27.1
		c-2.7-1.8-5.6-3.4-8.5-4.9c-8.4-4.3-17.5-7.3-27.2-8.8v9.9c7.8,1.4,15.3,3.9,22.3,7.4c2.9,1.5,5.7,3.1,8.5,4.9
		c4.6,3,8.9,6.6,12.9,10.6c4,4,7.5,8.3,10.6,12.9c1.8,2.7,3.4,5.6,4.9,8.5c0,0,0,0,0,0l8.5-4.9v0l15.5-9c1.3,2.6,2.6,5.2,3.7,7.9
		c5.1,12.1,8,24.8,8.6,38c0.1,1.6,0.1,3.3,0.1,4.9s0,3.3-0.1,4.9c-0.6,12.7-3.3,25.1-8.1,36.9v0c0,0,0,0.1-0.1,0.1l8.6,4.9
		c0,0,0-0.1,0.1-0.1c6.1-14.4,9.4-30.1,9.4-46.7C370,226.4,363.2,204.4,351.4,185.8z"/>
	<path id="XMLID_66_" class="st0" d="M185.6,245.1c-0.1,1.6-0.2,3.2-0.2,4.9c0,1.6,0.1,3.3,0.2,4.9c0.6,8.2,2.8,16,6.2,23.1
		c0.3,0.6,0.6,1.2,0.9,1.8c0.1,0.2,0.2,0.4,0.3,0.7c0.3,0.6,0.7,1.3,1.1,1.9c0.3,0.6,0.7,1.1,1,1.7c0,0.1,0.1,0.1,0.1,0.2
		c0.2,0.3,0.4,0.7,0.6,1c0.1,0.2,0.2,0.3,0.3,0.5c0.1,0.2,0.2,0.4,0.4,0.5c0,0.1,0.1,0.1,0.1,0.2l8.5-4.9c0-0.1-0.1-0.1-0.1-0.2
		c-1.9-2.6-3.4-5.4-4.8-8.3c-2.6-5.7-4.3-11.8-4.8-18.2c-0.1-1.6-0.2-3.2-0.2-4.9c0-1.6,0.1-3.3,0.2-4.9c0.3-3,0.8-6,1.5-8.9
		l-4.3-2.5l-4.4-2.6C186.8,235.6,185.9,240.3,185.6,245.1z"/>
	<path id="XMLID_67_" class="st0" d="M200.3,226.9c1.4-2.9,3-5.7,4.9-8.4c1.8-2.6,3.8-5,6.1-7.2c2.1-2.1,4.2-3.9,6.6-5.6
		c0.2-0.2,0.5-0.3,0.7-0.5c2.4-1.7,5-3.2,7.7-4.5c0.3-0.1,0.5-0.3,0.8-0.4c2.7-1.2,5.5-2.3,8.3-3.1v-10.1c-4.6,1.1-9.1,2.6-13.2,4.7
		c-3,1.4-5.8,3.1-8.5,4.9c-6.6,4.5-12.4,10.3-17,16.9c-1.8,2.7-3.5,5.5-4.9,8.4l5.7,3.3L200.3,226.9z"/>
	<path id="XMLID_68_" class="st0" d="M286.5,196.6c-2.7-1.8-5.5-3.5-8.5-4.9c-7.1-3.4-14.9-5.6-23.1-6.2c-1.6-0.1-3.2-0.2-4.9-0.2
		c-1.6,0-3.3,0.1-4.9,0.2v9.8c1.6-0.1,3.2-0.2,4.9-0.2c1.6,0,3.3,0.1,4.9,0.2c6.4,0.6,12.5,2.2,18.2,4.8c3,1.4,5.8,3,8.5,4.9
		c2.5,1.7,4.8,3.7,7,5.9l8.7-5C294,202.5,290.4,199.3,286.5,196.6z"/>
	<path id="XMLID_78_" class="st0" d="M347.8,300.8l-10.7-6.2l-4.8-2.8c5.7-11.2,9.2-23.7,9.9-37c0.1-1.6,0.1-3.3,0.1-4.9
		c0-1.6,0-3.3-0.1-4.9c-0.5-9.8-2.5-19.2-5.9-28l-8.6,5c2.6,7.3,4.2,15.1,4.7,23c0.1,1.6,0.1,3.3,0.1,4.9c0,1.6,0,3.3-0.1,4.9
		c-0.7,11.3-3.6,22.2-8.6,32.1c-1.5,2.9-3.1,5.7-4.9,8.5c0,0,0,0,0,0l8.5,4.9l6.4,3.7l9.2,5.3c-4.3,6.7-9.3,12.9-15,18.6
		c-10.1,10.1-21.9,18.1-35,23.6c-9.1,3.8-18.5,6.4-28.2,7.7v9.9c39.8-4.8,73.5-29.1,91.5-63.1c0.1-0.1,0.1-0.2,0.2-0.3L347.8,300.8
		C347.8,300.8,347.8,300.8,347.8,300.8z"/>
</g>
</svg>
